<svg xmlns="http://www.w3.org/2000/svg" data-name="Layer 1" viewBox="0 0 100 125" x="0px" y="0px"><title>Artboard 459</title><path d="M82,10H78V6a4,4,0,0,0-8,0v4H54V6a4,4,0,0,0-8,0v4H30V6a4,4,0,0,0-8,0v4H18A16,16,0,0,0,2,26V82A16,16,0,0,0,18,98H82A16,16,0,0,0,98,82V26A16,16,0,0,0,82,10ZM18,18h4v4a4,4,0,0,0,8,0V18H46v4a4,4,0,0,0,8,0V18H70v4a4,4,0,0,0,8,0V18h4a8,8,0,0,1,8,8v8H10V26A8,8,0,0,1,18,18ZM82,90H18a8,8,0,0,1-8-8V42H90V82A8,8,0,0,1,82,90Z"/><path d="M64.4,70.34l-3,1.31a29.25,29.25,0,0,1-22.77,0l-3-1.31a4,4,0,1,0-3.2,7.32l3,1.32a36.75,36.75,0,0,0,29.18,0l3-1.32a4,4,0,1,0-3.2-7.32Z"/><circle cx="36" cy="56" r="6"/><circle cx="64" cy="56" r="6"/><text x="0" y="115" fill="#000000" font-size="5px" font-weight="bold" font-family="'Helvetica Neue', Helvetica, Arial-Unicode, Arial, Sans-serif">Created by Gregor Cresnar</text><text x="0" y="120" fill="#000000" font-size="5px" font-weight="bold" font-family="'Helvetica Neue', Helvetica, Arial-Unicode, Arial, Sans-serif">from the Noun Project</text></svg>